<svg width="34" height="34" viewBox="0 0 34 34" fill="none" xmlns="http://www.w3.org/2000/svg">
<path fill-rule="evenodd" clip-rule="evenodd" d="M27.6246 13.544C27.672 19.4118 22.7821 24.8389 16.9143 24.7916C11.0464 24.7442 6.4227 19.2403 6.37535 13.3725C6.328 7.50469 11.0464 2.78625 16.9143 2.83361C22.7821 2.88096 27.5773 7.67616 27.6246 13.544ZM17.7169 7.43745C17.1301 7.43272 16.6506 7.90456 16.6459 8.49134C16.6411 9.07813 17.113 9.55765 17.6998 9.56238C19.4481 9.57649 20.8818 11.0102 20.8959 12.7585C20.9006 13.3453 21.3801 13.8171 21.9669 13.8124C22.5537 13.8076 23.0255 13.3281 23.0208 12.7413C22.9973 9.83283 20.6254 7.46092 17.7169 7.43745Z" fill="#CE7D63"/>
<path d="M20.0699 25.8037C20.5406 27.3087 19.5652 28.8237 18.0626 29.129V31.1665C18.0626 31.7533 17.5869 32.229 17.0001 32.229C16.4133 32.229 15.9376 31.7533 15.9376 31.1665V29.129C14.435 28.8237 13.4597 27.3087 13.9303 25.8037L13.9401 25.7735C14.8812 26.0479 15.8728 26.1998 16.9029 26.2081C17.9951 26.2169 19.0532 26.0628 20.0593 25.7705C20.0631 25.7816 20.0665 25.7927 20.0699 25.8037Z" fill="#CE7D63"/>
</svg>
