<svg width="34" height="34" viewBox="0 0 34 34" fill="none" xmlns="http://www.w3.org/2000/svg">
<path fill-rule="evenodd" clip-rule="evenodd" d="M31.1667 16.9999C31.1667 24.824 24.824 31.1666 17 31.1666C9.17596 31.1666 2.83333 24.824 2.83333 16.9999C2.83333 9.17588 9.17596 2.83325 17 2.83325C24.824 2.83325 31.1667 9.17588 31.1667 16.9999ZM19.1081 9.13162C19.6749 9.2835 20.0113 9.86611 19.8594 10.4329L16.1928 24.1169C16.0409 24.6837 15.4583 25.02 14.8915 24.8682C14.3247 24.7163 13.9883 24.1337 14.1402 23.5669L17.8068 9.88292C17.9587 9.31612 18.5413 8.97975 19.1081 9.13162ZM21.207 11.9986C21.622 11.5837 22.2947 11.5837 22.7096 11.9986L23.0048 12.2938C23.9048 13.1938 24.6554 13.9443 25.1711 14.6202C25.7154 15.3336 26.0972 16.0874 26.0972 16.9999C26.0972 17.9124 25.7154 18.6662 25.1711 19.3797C24.6554 20.0556 23.9049 20.806 23.0048 21.706L22.7096 22.0012C22.2947 22.4162 21.622 22.4162 21.207 22.0012C20.7921 21.5863 20.7921 20.9136 21.207 20.4986L21.4501 20.2556C22.4158 19.2899 23.0629 18.6396 23.4817 18.0907C23.8818 17.5663 23.9722 17.261 23.9722 16.9999C23.9722 16.7388 23.8818 16.4336 23.4817 15.9092C23.0629 15.3602 22.4158 14.71 21.4501 13.7443L21.207 13.5012C20.7921 13.0863 20.7921 12.4136 21.207 11.9986ZM11.2906 11.9986C11.7056 11.5837 12.3783 11.5837 12.7932 11.9986C13.2082 12.4136 13.2082 13.0863 12.7932 13.5012L12.5502 13.7443C11.5845 14.71 10.9374 15.3602 10.5186 15.9092C10.1185 16.4336 10.028 16.7388 10.028 16.9999C10.028 17.261 10.1185 17.5663 10.5186 18.0907C10.9374 18.6396 11.5845 19.2899 12.5502 20.2556L12.7932 20.4986C13.2082 20.9136 13.2082 21.5863 12.7932 22.0012C12.3783 22.4162 11.7056 22.4162 11.2906 22.0012L10.9955 21.7061C10.0954 20.8061 9.34486 20.0556 8.82915 19.3797C8.28482 18.6662 7.90303 17.9124 7.90303 16.9999C7.90303 16.0874 8.28482 15.3336 8.82915 14.6202C9.34486 13.9443 10.0954 13.1938 10.9955 12.2938L11.2906 11.9986Z" fill="#CE7D63"/>
</svg>
