<svg width="34" height="34" viewBox="0 0 34 34" fill="none" xmlns="http://www.w3.org/2000/svg">
<path d="M12.2766 17.0001C12.2766 14.3922 14.3914 12.2775 17.0009 12.2775C19.6104 12.2775 21.7263 14.3922 21.7263 17.0001C21.7263 19.608 19.6104 21.7227 17.0009 21.7227C14.3914 21.7227 12.2766 19.608 12.2766 17.0001ZM9.72213 17.0001C9.72213 21.0178 12.9808 24.2745 17.0009 24.2745C21.021 24.2745 24.2796 21.0178 24.2796 17.0001C24.2796 12.9825 21.021 9.72573 17.0009 9.72573C12.9808 9.72573 9.72213 12.9825 9.72213 17.0001ZM22.8668 9.4373C22.8666 9.77353 22.9663 10.1022 23.1531 10.3819C23.3399 10.6615 23.6054 10.8795 23.9162 11.0083C24.227 11.1371 24.569 11.1709 24.899 11.1054C25.229 11.04 25.5321 10.8782 25.7701 10.6405C26.0081 10.4029 26.1702 10.1 26.236 9.7703C26.3018 9.44056 26.2682 9.09873 26.1396 8.78805C26.011 8.47736 25.7931 8.21177 25.5134 8.02486C25.2337 7.83795 24.9049 7.73812 24.5685 7.73798H24.5678C24.1168 7.73819 23.6844 7.91727 23.3655 8.23589C23.0465 8.55451 22.8672 8.98661 22.8668 9.4373ZM11.2741 28.5314C9.89212 28.4685 9.14095 28.2385 8.64176 28.0441C7.97995 27.7866 7.50775 27.4799 7.01128 26.9844C6.51481 26.4889 6.20749 26.0175 5.95098 25.3561C5.75638 24.8574 5.52618 24.1064 5.46335 22.7253C5.39463 21.232 5.38091 20.7834 5.38091 17.0002C5.38091 13.2171 5.39577 12.7697 5.46335 11.2752C5.52629 9.89403 5.7582 9.14456 5.95098 8.64442C6.20863 7.98301 6.51549 7.51109 7.01128 7.01492C7.50707 6.51875 7.97882 6.21161 8.64176 5.95525C9.14072 5.76077 9.89212 5.53071 11.2741 5.46792C12.7683 5.39924 13.2171 5.38553 17.0009 5.38553C20.7846 5.38553 21.2339 5.40038 22.7293 5.46792C24.1114 5.53082 24.8613 5.76259 25.3617 5.95525C26.0235 6.21161 26.4957 6.51943 26.9922 7.01492C27.4887 7.51041 27.7949 7.98301 28.0525 8.64442C28.2471 9.14309 28.4773 9.89403 28.5401 11.2752C28.6088 12.7697 28.6226 13.2171 28.6226 17.0002C28.6226 20.7834 28.6088 21.2307 28.5401 22.7253C28.4772 24.1064 28.2458 24.8572 28.0525 25.3561C27.7949 26.0175 27.488 26.4894 26.9922 26.9844C26.4964 27.4795 26.0235 27.7866 25.3617 28.0441C24.8628 28.2386 24.1114 28.4686 22.7293 28.5314C21.2352 28.6001 20.7863 28.6138 17.0009 28.6138C13.2154 28.6138 12.7679 28.6001 11.2741 28.5314ZM11.1568 2.91929C9.64774 2.98797 8.61658 3.2271 7.71607 3.5773C6.78346 3.93895 5.99396 4.42413 5.20503 5.21134C4.4161 5.99855 3.93187 6.78882 3.57001 7.72087C3.2196 8.62141 2.98033 9.65138 2.9116 11.1595C2.84175 12.67 2.82576 13.1529 2.82576 17.0001C2.82576 20.8473 2.84175 21.3302 2.9116 22.8407C2.98033 24.349 3.2196 25.3788 3.57001 26.2794C3.93187 27.2109 4.41621 28.002 5.20503 28.7889C5.99384 29.5758 6.78346 30.0603 7.71607 30.4229C8.61828 30.7731 9.64774 31.0123 11.1568 31.081C12.669 31.1496 13.1514 31.1668 17.0009 31.1668C20.8504 31.1668 21.3336 31.1508 22.845 31.081C24.3541 31.0123 25.3846 30.7731 26.2857 30.4229C27.2178 30.0603 28.0078 29.5761 28.7967 28.7889C29.5857 28.0017 30.0689 27.2109 30.4318 26.2794C30.7822 25.3788 31.0226 24.3489 31.0902 22.8407C31.1589 21.3291 31.1749 20.8473 31.1749 17.0001C31.1749 13.1529 31.1589 12.67 31.0902 11.1595C31.0214 9.65127 30.7822 8.62085 30.4318 7.72087C30.0689 6.78939 29.5844 5.99979 28.7967 5.21134C28.0091 4.42288 27.2178 3.93895 26.2868 3.5773C25.3846 3.2271 24.354 2.98684 22.8461 2.91929C21.3347 2.85061 20.8515 2.8335 17.002 2.8335C13.1525 2.8335 12.669 2.84948 11.1568 2.91929Z" fill="#CE7D63"/>
<path d="M12.2766 17.0001C12.2766 14.3922 14.3914 12.2775 17.0009 12.2775C19.6104 12.2775 21.7263 14.3922 21.7263 17.0001C21.7263 19.608 19.6104 21.7227 17.0009 21.7227C14.3914 21.7227 12.2766 19.608 12.2766 17.0001ZM9.72213 17.0001C9.72213 21.0178 12.9808 24.2745 17.0009 24.2745C21.021 24.2745 24.2796 21.0178 24.2796 17.0001C24.2796 12.9825 21.021 9.72573 17.0009 9.72573C12.9808 9.72573 9.72213 12.9825 9.72213 17.0001ZM22.8668 9.4373C22.8666 9.77353 22.9663 10.1022 23.1531 10.3819C23.3399 10.6615 23.6054 10.8795 23.9162 11.0083C24.227 11.1371 24.569 11.1709 24.899 11.1054C25.229 11.04 25.5321 10.8782 25.7701 10.6405C26.0081 10.4029 26.1702 10.1 26.236 9.7703C26.3018 9.44056 26.2682 9.09873 26.1396 8.78805C26.011 8.47736 25.7931 8.21177 25.5134 8.02486C25.2337 7.83795 24.9049 7.73812 24.5685 7.73798H24.5678C24.1168 7.73819 23.6844 7.91727 23.3655 8.23589C23.0465 8.55451 22.8672 8.98661 22.8668 9.4373ZM11.2741 28.5314C9.89212 28.4685 9.14095 28.2385 8.64176 28.0441C7.97995 27.7866 7.50775 27.4799 7.01128 26.9844C6.51481 26.4889 6.20749 26.0175 5.95098 25.3561C5.75638 24.8574 5.52618 24.1064 5.46335 22.7253C5.39463 21.232 5.38091 20.7834 5.38091 17.0002C5.38091 13.2171 5.39577 12.7697 5.46335 11.2752C5.52629 9.89403 5.7582 9.14456 5.95098 8.64442C6.20863 7.98301 6.51549 7.51109 7.01128 7.01492C7.50707 6.51875 7.97882 6.21161 8.64176 5.95525C9.14072 5.76077 9.89212 5.53071 11.2741 5.46792C12.7683 5.39924 13.2171 5.38553 17.0009 5.38553C20.7846 5.38553 21.2339 5.40038 22.7293 5.46792C24.1114 5.53082 24.8613 5.76259 25.3617 5.95525C26.0235 6.21161 26.4957 6.51943 26.9922 7.01492C27.4887 7.51041 27.7949 7.98301 28.0525 8.64442C28.2471 9.14309 28.4773 9.89403 28.5401 11.2752C28.6088 12.7697 28.6226 13.2171 28.6226 17.0002C28.6226 20.7834 28.6088 21.2307 28.5401 22.7253C28.4772 24.1064 28.2458 24.8572 28.0525 25.3561C27.7949 26.0175 27.488 26.4894 26.9922 26.9844C26.4964 27.4795 26.0235 27.7866 25.3617 28.0441C24.8628 28.2386 24.1114 28.4686 22.7293 28.5314C21.2352 28.6001 20.7863 28.6138 17.0009 28.6138C13.2154 28.6138 12.7679 28.6001 11.2741 28.5314ZM11.1568 2.91929C9.64774 2.98797 8.61658 3.2271 7.71607 3.5773C6.78346 3.93895 5.99396 4.42413 5.20503 5.21134C4.4161 5.99855 3.93187 6.78882 3.57001 7.72087C3.2196 8.62141 2.98033 9.65138 2.9116 11.1595C2.84175 12.67 2.82576 13.1529 2.82576 17.0001C2.82576 20.8473 2.84175 21.3302 2.9116 22.8407C2.98033 24.349 3.2196 25.3788 3.57001 26.2794C3.93187 27.2109 4.41621 28.002 5.20503 28.7889C5.99384 29.5758 6.78346 30.0603 7.71607 30.4229C8.61828 30.7731 9.64774 31.0123 11.1568 31.081C12.669 31.1496 13.1514 31.1668 17.0009 31.1668C20.8504 31.1668 21.3336 31.1508 22.845 31.081C24.3541 31.0123 25.3846 30.7731 26.2857 30.4229C27.2178 30.0603 28.0078 29.5761 28.7967 28.7889C29.5857 28.0017 30.0689 27.2109 30.4318 26.2794C30.7822 25.3788 31.0226 24.3489 31.0902 22.8407C31.1589 21.3291 31.1749 20.8473 31.1749 17.0001C31.1749 13.1529 31.1589 12.67 31.0902 11.1595C31.0214 9.65127 30.7822 8.62085 30.4318 7.72087C30.0689 6.78939 29.5844 5.99979 28.7967 5.21134C28.0091 4.42288 27.2178 3.93895 26.2868 3.5773C25.3846 3.2271 24.354 2.98684 22.8461 2.91929C21.3347 2.85061 20.8515 2.8335 17.002 2.8335C13.1525 2.8335 12.669 2.84948 11.1568 2.91929Z" fill="#CE7D63"/>
</svg>
