<svg width="130" height="24" viewBox="0 0 130 24" fill="none" xmlns="http://www.w3.org/2000/svg">
<path d="M129.707 24H126.41V9.47281H117.222V24H113.941V6.17574H117.222V9.32218C117.244 8.88703 117.344 8.47978 117.523 8.10042C117.702 7.70991 117.936 7.37518 118.226 7.09624C118.527 6.80614 118.873 6.58299 119.264 6.42678C119.654 6.25942 120.073 6.17574 120.519 6.17574H126.41C126.868 6.17574 127.297 6.265 127.699 6.44352C128.1 6.61088 128.446 6.84519 128.736 7.14645C129.038 7.43654 129.272 7.78243 129.439 8.1841C129.618 8.58578 129.707 9.01535 129.707 9.47281V24Z" fill="#F3DFD8"/>
<path d="M108.435 16.7699H96.636V20.7029H108.435V24H96.636C96.1897 24 95.7657 23.9163 95.364 23.749C94.9623 23.5704 94.6109 23.3361 94.3096 23.046C94.0195 22.7448 93.7852 22.3933 93.6067 21.9916C93.4393 21.59 93.3557 21.1604 93.3557 20.7029V9.47281C93.3557 9.01535 93.4393 8.58578 93.6067 8.1841C93.7852 7.78243 94.0195 7.43654 94.3096 7.14645C94.6109 6.84519 94.9623 6.61088 95.364 6.44352C95.7657 6.265 96.1897 6.17574 96.636 6.17574H105.138C105.596 6.17574 106.025 6.265 106.427 6.44352C106.828 6.61088 107.174 6.84519 107.464 7.14645C107.766 7.43654 108 7.78243 108.167 8.1841C108.346 8.58578 108.435 9.01535 108.435 9.47281V16.7699ZM96.636 9.47281V13.4728H105.138V9.47281H96.636Z" fill="#F3DFD8"/>
<path d="M67.6485 3.43096C67.6485 2.96234 67.7378 2.52162 67.9163 2.10879C68.0948 1.6848 68.3403 1.32218 68.6527 1.02092C68.9651 0.708508 69.3277 0.46304 69.7406 0.284519C70.1646 0.0948396 70.6109 0 71.0795 0H84.1004C84.569 0 85.0098 0.0948396 85.4226 0.284519C85.8466 0.46304 86.2148 0.708508 86.5272 1.02092C86.8396 1.32218 87.0851 1.6848 87.2636 2.10879C87.4421 2.52162 87.5314 2.96234 87.5314 3.43096V6.5272H84.1004V3.43096H71.0795V20.569H84.1004V14.7448H77.59V11.3138H87.5314V20.569C87.5314 21.0377 87.4421 21.484 87.2636 21.908C87.0851 22.3208 86.8396 22.6834 86.5272 22.9958C86.2148 23.3082 85.8466 23.5537 85.4226 23.7322C85.0098 23.9107 84.569 24 84.1004 24H71.0795C70.6109 24 70.1646 23.9107 69.7406 23.7322C69.3277 23.5537 68.9651 23.3082 68.6527 22.9958C68.3403 22.6834 68.0948 22.3208 67.9163 21.908C67.7378 21.484 67.6485 21.0377 67.6485 20.569V3.43096Z" fill="#F3DFD8"/>
<path d="M63.2301 6.17574L56.7531 14.8787L63.5314 24H59.5481L54.7615 17.5565L49.9581 24H45.9749L52.7699 14.8787L46.2929 6.17574H50.2594L54.7615 12.2008L59.2469 6.17574H63.2301Z" fill="#F3DFD8"/>
<path d="M42.1925 16.7699H30.3933V20.7029H42.1925V24H30.3933C29.947 24 29.523 23.9163 29.1213 23.749C28.7197 23.5704 28.3682 23.3361 28.0669 23.046C27.7768 22.7448 27.5425 22.3933 27.364 21.9916C27.1967 21.59 27.113 21.1604 27.113 20.7029V9.47281C27.113 9.01535 27.1967 8.58578 27.364 8.1841C27.5425 7.78243 27.7768 7.43654 28.0669 7.14645C28.3682 6.84519 28.7197 6.61088 29.1213 6.44352C29.523 6.265 29.947 6.17574 30.3933 6.17574H38.8954C39.3529 6.17574 39.7824 6.265 40.1841 6.44352C40.5858 6.61088 40.9317 6.84519 41.2218 7.14645C41.523 7.43654 41.7573 7.78243 41.9247 8.1841C42.1032 8.58578 42.1925 9.01535 42.1925 9.47281V16.7699ZM30.3933 9.47281V13.4728H38.8954V9.47281H30.3933Z" fill="#F3DFD8"/>
<path d="M3.43096 24H0V0H3.43096L17.8577 18.6109V0H21.2887V24H17.8577L3.43096 5.38912V24Z" fill="#F3DFD8"/>
</svg>
