<svg width="34" height="34" viewBox="0 0 34 34" fill="none" xmlns="http://www.w3.org/2000/svg">
<path d="M18.4671 5.17301L17.6553 5.65379C16.7635 6.18187 16.3177 6.44591 15.8265 6.50742C15.3354 6.56894 14.8545 6.42097 13.8928 6.12503L13.0172 5.85559C9.63283 4.81415 7.94065 4.29343 6.92348 5.22442C5.9063 6.15541 6.23777 7.92154 6.90071 11.4538L7.07222 12.3676C7.2606 13.3714 7.35479 13.8733 7.24306 14.3636C7.13133 14.8539 6.82631 15.2771 6.21629 16.1235L5.66091 16.8941C3.51421 19.8726 2.44086 21.3619 2.96451 22.5965C3.48815 23.8312 5.262 23.9935 8.80968 24.3182L9.72753 24.4023C10.7357 24.4945 11.2397 24.5407 11.6619 24.7822C12.084 25.0237 12.3763 25.4332 12.961 26.2522L13.4934 26.9979C15.551 29.8802 16.5798 31.3213 17.9206 31.1534C19.2614 30.9855 20.0262 29.3197 21.5559 25.9881L21.9516 25.1262C22.1738 24.6424 22.3392 24.2822 22.4975 24.0001L28.9987 30.5012C29.4136 30.9162 30.0864 30.9162 30.5013 30.5012C30.9162 30.0863 30.9162 29.4135 30.5013 28.9986L24.223 22.7203C24.3958 22.6574 24.5887 22.5898 24.806 22.5137L25.6904 22.204C29.1087 21.0068 30.8179 20.4082 31.123 19.0698C31.428 17.7313 30.1268 16.5395 27.5245 14.1557L26.8513 13.539C26.1118 12.8616 25.742 12.5229 25.5502 12.0707C25.3584 11.6184 25.3662 11.1038 25.3818 10.0745L25.3961 9.13732C25.4511 5.51514 25.4786 3.70405 24.3264 3.04478C23.1741 2.38551 21.6051 3.31468 18.4671 5.17301Z" fill="#CE7D63"/>
</svg>
