<svg width="34" height="34" viewBox="0 0 34 34" fill="none" xmlns="http://www.w3.org/2000/svg">
<path d="M5.73094 7.77978L7.77986 5.73086C9.7116 3.79912 10.6775 2.83325 11.8777 2.83325C13.0779 2.83325 14.0438 3.79912 15.9755 5.73086L12.5607 9.14573L5.73094 15.9755L5.73092 15.9754C3.79919 14.0437 2.83333 13.0778 2.83333 11.8776C2.83333 10.6774 3.7992 9.71152 5.73094 7.77978L5.73094 7.77978Z" fill="#CE7D63"/>
<path d="M28.2691 26.2201L26.2201 28.269C24.2884 30.2007 23.3225 31.1666 22.1223 31.1666C20.9221 31.1666 19.9562 30.2007 18.0245 28.269L18.0245 28.269L24.8542 21.4392L28.2691 18.0244C30.2008 19.9561 31.1667 20.922 31.1667 22.1222C31.1667 23.3224 30.2008 24.2883 28.2691 26.2201Z" fill="#CE7D63"/>
<path d="M16.1501 25.7283L16.1501 25.7282L26.6276 15.2508C25.2016 14.6573 23.5127 13.6824 21.9153 12.085C20.3178 10.4875 19.3428 8.79824 18.7493 7.37211L8.27166 17.8498L8.27161 17.8498C7.45401 18.6674 7.04518 19.0763 6.6936 19.527C6.27885 20.0588 5.92327 20.6341 5.63315 21.2429C5.3872 21.7589 5.20437 22.3074 4.83871 23.4044L2.91046 29.1891C2.73052 29.729 2.87102 30.3242 3.27339 30.7265C3.67576 31.1289 4.27093 31.2694 4.81077 31.0894L10.5955 29.1612C11.6925 28.7955 12.241 28.6127 12.757 28.3668C13.3658 28.0766 13.9412 27.7211 14.4729 27.3063C14.9237 26.9547 15.3325 26.5459 16.1501 25.7283Z" fill="#CE7D63"/>
<path d="M29.535 12.3434C31.7106 10.1678 31.7106 6.64052 29.535 4.46494C27.3594 2.28936 23.8321 2.28936 21.6565 4.46494L20.3999 5.72158C20.4171 5.77354 20.4349 5.82622 20.4534 5.87959C20.914 7.2072 21.7831 8.94759 23.4179 10.5824C25.0528 12.2173 26.7932 13.0864 28.1208 13.547C28.1739 13.5654 28.2264 13.5832 28.2781 13.6003L29.535 12.3434Z" fill="#CE7D63"/>
</svg>
