<svg width="34" height="34" viewBox="0 0 34 34" fill="none" xmlns="http://www.w3.org/2000/svg">
<path fill-rule="evenodd" clip-rule="evenodd" d="M7.32635 4.49298C5.66663 6.15271 5.66663 8.824 5.66663 14.1666V19.8333C5.66663 25.1758 5.66663 27.8471 7.32635 29.5069C8.98608 31.1666 11.6574 31.1666 17 31.1666C22.3425 31.1666 25.0138 31.1666 26.6736 29.5069C28.3333 27.8471 28.3333 25.1758 28.3333 19.8333V14.1666C28.3333 8.824 28.3333 6.15271 26.6736 4.49298C25.0138 2.83325 22.3425 2.83325 17 2.83325C11.6574 2.83325 8.98608 2.83325 7.32635 4.49298ZM12.75 6.02075C12.1632 6.02075 11.6875 6.49645 11.6875 7.08325C11.6875 7.67005 12.1632 8.14575 12.75 8.14575H21.25C21.8368 8.14575 22.3125 7.67005 22.3125 7.08325C22.3125 6.49645 21.8368 6.02075 21.25 6.02075H12.75ZM17 26.9166C18.5648 26.9166 19.8333 25.6481 19.8333 24.0833C19.8333 22.5184 18.5648 21.2499 17 21.2499C15.4352 21.2499 14.1666 22.5184 14.1666 24.0833C14.1666 25.6481 15.4352 26.9166 17 26.9166Z" fill="#CE7D63"/>
</svg>
