<svg width="34" height="34" viewBox="0 0 34 34" fill="none" xmlns="http://www.w3.org/2000/svg">
<path d="M32.329 7.31323C31.3284 7.74387 30.2764 8.04374 29.1991 8.20544C29.7027 8.11909 30.4438 7.21249 30.7388 6.84554C31.187 6.29202 31.5286 5.66013 31.7462 4.98197C31.7462 4.93161 31.7965 4.85965 31.7462 4.82368C31.7208 4.80982 31.6923 4.80256 31.6634 4.80256C31.6345 4.80256 31.6061 4.80982 31.5807 4.82368C30.4109 5.45716 29.1659 5.94065 27.8751 6.26272C27.8302 6.27647 27.7823 6.2777 27.7366 6.26629C27.691 6.25488 27.6493 6.23126 27.6161 6.19797C27.5156 6.07833 27.4075 5.96537 27.2923 5.85979C26.7659 5.38811 26.1686 5.00205 25.5223 4.71575C24.6499 4.35784 23.7076 4.20284 22.7665 4.26245C21.8534 4.32012 20.9619 4.56504 20.1475 4.98197C19.3455 5.42155 18.6406 6.01872 18.0752 6.73761C17.4805 7.47753 17.0512 8.33623 16.8161 9.25594C16.6222 10.1308 16.6002 11.035 16.7513 11.9182C16.7513 12.0693 16.7513 12.0909 16.6218 12.0693C11.4916 11.3138 7.2824 9.49338 3.84308 5.58637C3.69198 5.41369 3.61283 5.41369 3.49051 5.58637C1.9939 7.86006 2.72062 11.4577 4.59138 13.2349C4.84321 13.4723 5.10224 13.7026 5.37566 13.9184C4.51793 13.8576 3.68115 13.6251 2.91489 13.2349C2.77099 13.1414 2.69184 13.1917 2.68464 13.3644C2.66425 13.6038 2.66425 13.8445 2.68464 14.0839C2.83478 15.2313 3.28694 16.3182 3.9949 17.2335C4.70285 18.1487 5.6412 18.8596 6.71397 19.2933C6.97549 19.4053 7.24799 19.4897 7.52703 19.5451C6.73299 19.7014 5.91859 19.7258 5.11663 19.6171C4.94395 19.5811 4.87919 19.6746 4.94395 19.8401C6.00165 22.7182 8.29692 23.596 9.98061 24.0853C10.2109 24.1213 10.4411 24.1213 10.7001 24.1789C10.7001 24.1789 10.7001 24.1788 10.657 24.222C10.1605 25.1286 8.15302 25.7402 7.23203 26.0568C5.55099 26.6606 3.75868 26.8914 1.97951 26.7332C1.6989 26.69 1.63414 26.6972 1.56219 26.7332C1.49024 26.7691 1.56219 26.8483 1.64134 26.9202C2.0011 27.1577 2.36086 27.3663 2.73501 27.5678C3.84887 28.1753 5.02643 28.6579 6.24628 29.0069C12.5637 30.7481 19.6726 29.4673 24.4142 24.7545C28.1414 21.0561 29.4509 15.9547 29.4509 10.8461C29.4509 10.6518 29.6883 10.5367 29.8251 10.436C30.768 9.70125 31.5993 8.83357 32.293 7.86006C32.4132 7.71495 32.4747 7.53018 32.4657 7.34201C32.4657 7.23408 32.4657 7.25567 32.329 7.31323Z" fill="#CE7D63"/>
</svg>
