<svg width="34" height="34" viewBox="0 0 34 34" fill="none" xmlns="http://www.w3.org/2000/svg">
<path d="M2.83337 9.20825C2.83337 5.68744 5.68756 2.83325 9.20837 2.83325C12.7292 2.83325 15.5834 5.68744 15.5834 9.20825V13.4583C15.5834 13.9523 15.5834 14.1993 15.5291 14.402C15.3817 14.952 14.9521 15.3816 14.4021 15.5289C14.1994 15.5833 13.9524 15.5833 13.4584 15.5833H9.20837C5.68756 15.5833 2.83337 12.7291 2.83337 9.20825Z" fill="#CE7D63"/>
<path d="M18.4167 20.5416C18.4167 20.0475 18.4167 19.8005 18.471 19.5978C18.6184 19.0479 19.048 18.6183 19.598 18.4709C19.8006 18.4166 20.0477 18.4166 20.5417 18.4166H24.7917C28.3125 18.4166 31.1667 21.2708 31.1667 24.7916C31.1667 28.3124 28.3125 31.1666 24.7917 31.1666C21.2709 31.1666 18.4167 28.3124 18.4167 24.7916V20.5416Z" fill="#CE7D63"/>
<path d="M2.83337 24.7916C2.83337 21.2708 5.68756 18.4166 9.20837 18.4166H13.0334C13.926 18.4166 14.3723 18.4166 14.7132 18.5903C15.0131 18.7431 15.2569 18.9869 15.4097 19.2868C15.5834 19.6277 15.5834 20.074 15.5834 20.9666V24.7916C15.5834 28.3124 12.7292 31.1666 9.20837 31.1666C5.68756 31.1666 2.83337 28.3124 2.83337 24.7916Z" fill="#CE7D63"/>
<path d="M18.4167 9.20825C18.4167 5.68744 21.2709 2.83325 24.7917 2.83325C28.3125 2.83325 31.1667 5.68744 31.1667 9.20825C31.1667 12.7291 28.3125 15.5833 24.7917 15.5833H20.2381C20.0267 15.5833 19.921 15.5833 19.832 15.5732C19.0931 15.49 18.51 14.9068 18.4267 14.1679C18.4167 14.079 18.4167 13.9733 18.4167 13.7618V9.20825Z" fill="#CE7D63"/>
</svg>
